<?xml version="1.0" encoding="UTF-8" standalone="no"?>
<!-- Created with Inkscape (http://www.inkscape.org/) -->

<svg
   version="1.1"
   id="svg1"
   width="5376"
   height="4032"
   viewBox="0 0 5376 4032"
   sodipodi:docname="front_bumper_inksape.svg"
   xml:space="preserve"
   inkscape:version="1.3 (0e150ed, 2023-07-21)"
   xmlns:inkscape="http://www.inkscape.org/namespaces/inkscape"
   xmlns:sodipodi="http://sodipodi.sourceforge.net/DTD/sodipodi-0.dtd"
   xmlns="http://www.w3.org/2000/svg"
   xmlns:svg="http://www.w3.org/2000/svg"><defs
     id="defs1" /><sodipodi:namedview
     id="namedview1"
     pagecolor="#ffffff"
     bordercolor="#000000"
     borderopacity="0.25"
     inkscape:showpageshadow="2"
     inkscape:pageopacity="0.0"
     inkscape:pagecheckerboard="0"
     inkscape:deskcolor="#d1d1d1"
     inkscape:zoom="0.22061012"
     inkscape:cx="3458.5902"
     inkscape:cy="237.97639"
     inkscape:window-width="2560"
     inkscape:window-height="1212"
     inkscape:window-x="1440"
     inkscape:window-y="543"
     inkscape:window-maximized="0"
     inkscape:current-layer="g14" /><g
     inkscape:groupmode="layer"
     inkscape:label="Image"
     id="g1"><g
       id="g14"
       transform="translate(-58.927487,-1931.0084)"><path
         style="fill:#dac702"
         d="m 4625.1558,1607.5447 c 50.2493,-0.145 132.1757,-0.145 182.0587,0 49.8829,0.1451 8.7699,0.2637 -91.3624,0.2637 -100.1323,0 -140.9456,-0.1187 -90.6963,-0.2637 z m 333.115,-0.051 c 0.9999,-0.1897 1.8433,-1.8186 2.2463,-4.3386 0.9739,-6.0909 -0.3294,-39.5079 -1.9887,-50.9867 -1.0233,-7.0788 -1.5847,-22.8639 -1.8706,-52.5948 -0.2247,-23.3642 -0.7262,-43.732 -1.1143,-45.2618 -0.5517,-2.1739 -0.3505,-2.7814 0.921,-2.7814 1.4907,0 1.6268,-22.9138 1.6268,-274.0367 0,-298.32319 0.4044,-276.96885 -5.5754,-294.39094 -1.432,-4.17217 -3.4789,-12.66144 -4.5486,-18.86504 -1.1455,-6.6433 -3.6566,-15.78043 -6.1094,-22.2306 -5.3773,-14.14067 -17.4431,-37.92834 -25.4863,-50.2457 -3.478,-5.32628 -8.8269,-13.67266 -11.8865,-18.54753 -4.1324,-6.5842 -9.8544,-13.17371 -22.2516,-25.62548 -14.5722,-14.63629 -22.05,-21.09188 -39.9518,-34.49074 -24.1567,-18.08043 -60.6854,-35.19944 -86.4779,-40.52747 -49.3546,-10.19534 -66.3109,-11.72621 -143.1183,-12.92122 -32.2648,-0.50199 -61.6218,-1.39752 -65.2377,-1.99007 -4.0373,-0.66162 -27.4557,-1.09758 -60.6862,-1.12975 -41.1928,-0.0399 -56.6474,-0.3993 -64.732,-1.50545 -12.5836,-1.72172 -50.4306,-2.013 -59.2362,-0.4559 -8.6332,1.52663 -28.1666,8.66705 -35.8389,13.10089 -3.6159,2.08965 -9.9879,5.50819 -14.1601,7.59676 -4.1722,2.08857 -10.3167,5.71258 -13.6544,8.05336 -23.5477,16.51415 -62.418,32.84241 -86.6077,36.38132 -13.7162,2.00667 -42.5718,2.06265 -55.4992,0.10767 -24.5023,-3.70542 -45.2129,-10.19313 -130.9811,-41.03051 -12.2384,-4.40023 -40.9126,-14.59322 -63.7205,-22.65108 -74.584,-26.34996 -88.8995,-31.56359 -96.9876,-35.32236 -4.3896,-2.03997 -8.7135,-3.71424 -9.6086,-3.72059 -3.2313,-0.0229 -31.1865,-9.95743 -41.0737,-14.59642 -11.0924,-5.20451 -20.0088,-8.54855 -66.7548,-25.03623 -17.245,-6.08245 -42.7332,-15.09609 -56.6405,-20.03032 -13.9072,-4.93423 -38.03,-13.48611 -53.6062,-19.00417 -41.2798,-14.62394 -54.0373,-19.36569 -59.3883,-22.07361 -2.6238,-1.32785 -5.5823,-2.42098 -6.5743,-2.42917 -3.1918,-0.0264 -25.1155,-7.82108 -32.6024,-11.59142 -9.3818,-4.72459 -19.1851,-8.23353 -31.2939,-11.20109 -9.5855,-2.34919 -20.7381,-5.98083 -39.5568,-12.88099 -5.2847,-1.93774 -12.3395,-4.05814 -15.6772,-4.71199 -3.3378,-0.65385 -9.2547,-2.03969 -13.1487,-3.07965 -15.2666,-4.07715 -34.8855,-8.02445 -45.009,-9.05574 -6.1789,-0.62946 -34.0946,-1.07699 -66.7548,-1.07017 -65.9003,0.0137 -68.986,0.31169 -104.6838,10.10791 -3.894,1.0686 -9.8801,2.42939 -13.3023,3.02398 -3.4223,0.59458 -9.4824,2.18986 -13.4668,3.54506 -3.9845,1.35521 -10.0598,3.0091 -13.5007,3.67531 -3.441,0.66621 -13.9938,3.90359 -23.4507,7.19418 -9.4569,3.29058 -21.7459,7.03217 -27.3088,8.31463 -5.5629,1.28246 -24.4515,7.44034 -41.9746,13.68419 -17.5232,6.24384 -36.4118,12.47357 -41.9747,13.84383 -5.5629,1.37027 -21.961,6.50879 -36.4403,11.41894 -14.4792,4.91014 -31.1473,10.1118 -37.0402,11.55925 -5.8929,1.44745 -13.6176,3.72361 -17.1659,5.05814 -15.6394,5.88198 -43.6634,15.10009 -52.4719,17.25988 -5.2848,1.2958 -27.9535,8.77523 -50.3751,16.62097 -22.4215,7.84573 -45.4064,15.43197 -51.0775,16.85831 -5.6712,1.42633 -20.2393,5.96925 -32.3736,10.09538 -12.1343,4.12613 -26.699,8.6636 -32.366,10.08329 -5.667,1.41968 -20.0892,6.03076 -32.0495,10.24685 -11.9602,4.21609 -25.6146,8.57346 -30.3431,9.68305 -4.7285,1.1096 -19.9759,5.86751 -33.8831,10.57314 -13.9073,4.70563 -29.1547,9.4598 -33.8832,10.56483 -4.7285,1.10502 -15.0186,4.22706 -22.8669,6.93786 -7.8484,2.7108 -17.1789,5.46829 -20.7345,6.12776 -3.5556,0.65947 -11.2802,2.72093 -17.1657,4.58101 -32.3517,10.22449 -79.681,10.00171 -111.262,-0.52371 -19.163,-6.3867 -58.4166,-26.7781 -81.3359,-42.25222 -13.8103,-9.32412 -34.3542,-20.19563 -42.4803,-22.47988 -11.5624,-3.25019 -19.6597,-3.80332 -86.5335,-5.91113 -14.7723,-0.4656 -27.5164,-1.26964 -28.3202,-1.78675 -0.8474,-0.54507 -38.4424,-1.26979 -89.4566,-1.72447 -48.3973,-0.43136 -93.912,-0.85527 -101.1437,-0.94204 -14.5748,-0.17487 -52.299,1.61731 -53.8191,2.55681 -0.5332,0.32952 -7.3031,1.05648 -15.0441,1.61545 -24.5145,1.77015 -54.522,7.7188 -77.7952,15.42202 -11.4606,3.79334 -39.9776,17.94738 -50.5719,25.10065 -2.2251,1.50244 -7.2317,4.48175 -11.1258,6.6207 -11.0803,6.0863 -29.5055,19.79104 -38.9877,28.99938 -15.4283,14.9826 -32.8486,34.5364 -36.7639,41.2666 -2.1035,3.61589 -6.5448,10.21551 -9.8694,14.66584 -15.9106,21.29806 -30.6429,55.18519 -35.7918,82.3278 -0.8476,4.46794 -2.2093,10.0176 -3.026,12.33258 -0.859,2.43454 -1.4851,7.83187 -1.4851,12.80216 0,11.07893 -2.5076,27.86352 -5.6172,37.59892 -1.5982,5.00344 -2.4529,10.07922 -2.4614,14.61578 -0.017,8.9509 -2.6077,26.36477 -5.1108,34.3485 -1.6879,5.38368 -1.9587,9.35799 -1.9751,28.99612 -0.02,23.86184 -1.3589,37.25424 -4.9553,49.56044 -1.3049,4.4652 -2.1028,11.2793 -2.487,21.2402 -0.339,8.7863 -1.3896,18.5179 -2.6206,24.2744 -2.0147,9.4209 -2.0551,12.6548 -2.0681,165.4645 -0.013,150.9453 -0.074,156.0334 -1.9519,161.4906 -5.7229,16.6338 -7.4203,42.6488 -3.9095,59.9196 2.8909,14.2217 3.1087,28.2781 0.6142,39.6492 -1.9033,8.6765 -2.1853,13.2503 -2.263,36.7143 -0.074,22.3522 0.2255,28.3987 1.8044,36.4117 1.1225,5.6965 2.5638,10.1677 3.5401,10.9816 1.4318,1.1938 1.1848,1.2974 -1.8933,0.7945 -1.9471,-0.3182 -8.7743,-1.0475 -15.1716,-1.6208 -6.3973,-0.5732 -12.997,-1.3061 -14.6658,-1.6285 -1.6689,-0.3225 -8.041,-0.9796 -14.1602,-1.4603 -21.6915,-1.704 -34.6805,-3.8469 -45.2892,-7.4718 -14.98,-5.1184 -17.7024,-6.4011 -18.4261,-8.6811 -0.3562,-1.1224 -2.1921,-3.2187 -4.0797,-4.6584 -1.8876,-1.4398 -3.7007,-3.4643 -4.0291,-4.4991 -0.3284,-1.0347 -1.4214,-2.1429 -2.4288,-2.4627 -1.0075,-0.3197 -5.1224,-3.7566 -9.1444,-7.6375 -4.0219,-3.8809 -7.7172,-7.0562 -8.2116,-7.0562 -0.4945,0 -1.1891,-1.1557 -1.5436,-2.5683 -0.3546,-1.4126 -2.1294,-3.7009 -3.9442,-5.0851 -2.0119,-1.5345 -3.5516,-3.7772 -3.9455,-5.7467 -0.3554,-1.7766 -2.0028,-4.4693 -3.6609,-5.9838 l -3.0149,-2.7536 v -36.762 c 0,-28.5139 0.3226,-38.001 1.438,-42.2845 0.7909,-3.0374 1.7373,-10.074 2.103,-15.6369 0.3658,-5.5629 1.3117,-11.8304 2.1021,-13.9278 1.2071,-3.2034 1.4379,-20.2712 1.4428,-106.7066 0,-61.4561 0.3999,-105.2993 0.9843,-108.8677 0.6247,-3.815 1.8108,-6.8603 3.2813,-8.4252 l 2.3029,-2.4506 0.5057,-67.1938 0.5057,-67.1938 3.2872,-3.0716 3.2872,-3.0715 0.044,-19.9246 c 0.05,-22.77243 0.7091,-27.57856 4.3,-31.37222 l 2.5675,-2.71254 0.3371,-35.44578 c 0.3188,-33.51994 0.4471,-35.60132 2.36,-38.30848 5.8354,-8.25801 5.5519,-6.8587 5.5576,-27.43158 l 0.01,-19.25944 3.5401,-3.7531 3.54,-3.7531 v -22.59247 -22.59247 l 3.54,-3.22135 3.5401,-3.22136 v -11.05816 -11.05816 l 3.54,-2.82457 c 3.5394,-2.82416 3.54,-2.8258 3.54,-11.30236 0,-8.34853 0.053,-8.52776 3.4752,-11.75533 3.013,-2.84157 3.5689,-4.13557 4.1795,-9.72808 0.6086,-5.57497 1.1666,-6.88091 4.1105,-9.62126 3.1709,-2.95153 3.4064,-3.61082 3.4064,-9.53683 0,-5.98364 0.2127,-6.56093 3.54,-9.60866 2.3167,-2.122 3.54,-4.15659 3.54,-5.88758 0,-2.42296 1.0335,-3.83274 5.4904,-7.48924 0.8743,-0.71729 1.5967,-2.76545 1.6052,-4.55147 0.018,-3.81738 0.5637,-4.72005 4.2831,-7.08686 2.1825,-1.38884 2.7814,-2.54579 2.7814,-5.37299 0,-2.84393 0.7431,-4.26088 3.527,-6.72553 2.1715,-1.92256 3.7737,-4.43796 4.1691,-6.54554 0.3869,-2.06265 1.6529,-4.08528 3.1854,-5.08942 1.3988,-0.91651 3.1631,-3.14995 3.9207,-4.9632 0.7576,-1.81324 2.4023,-3.8365 3.6549,-4.49614 2.9975,-1.57853 3.7604,-2.84194 3.7791,-6.25811 0.01,-1.90031 1.1475,-3.89826 3.454,-6.06862 1.8911,-1.77958 3.7295,-4.21897 4.0852,-5.42085 0.3556,-1.20189 1.7644,-2.91763 3.1305,-3.81275 1.3661,-0.89513 3.1305,-3.17494 3.9207,-5.06626 0.7902,-1.89132 2.3809,-3.94403 3.5348,-4.56159 1.154,-0.61756 2.7805,-2.44252 3.6146,-4.05548 0.8341,-1.61296 2.4368,-3.22473 3.5616,-3.58173 1.1248,-0.35699 2.7447,-2.00199 3.5998,-3.65556 0.8551,-1.65356 2.6399,-3.50093 3.9663,-4.10527 1.3263,-0.60433 2.9464,-2.39005 3.6001,-3.96826 0.6537,-1.57821 2.0621,-3.1467 3.1296,-3.48554 1.0676,-0.33883 2.7255,-1.83068 3.6841,-3.31522 2.4261,-3.75669 24.4306,-25.30916 26.5157,-25.97097 0.9387,-0.2979 2.3036,-1.65713 3.0333,-3.02049 0.7296,-1.36337 3.1452,-3.74535 5.3679,-5.29329 2.2227,-1.54794 5.4536,-3.84016 7.1797,-5.09382 1.7261,-1.25366 4.7313,-3.41396 6.6783,-4.80067 1.9471,-1.38671 5.1331,-3.66244 7.0801,-5.05719 1.947,-1.39474 5.133,-3.65562 7.0801,-5.02416 1.947,-1.36855 5.5881,-3.94424 8.0915,-5.72375 2.5033,-1.77952 7.2823,-4.54262 10.62,-6.14022 3.3378,-1.59761 7.8893,-4.28019 10.1144,-5.9613 2.2252,-1.68111 7.2318,-4.66364 11.1258,-6.62785 3.8941,-1.96421 10.2661,-5.33609 14.1601,-7.49305 7.4557,-4.12979 19.3421,-10.06149 20.1621,-10.06149 0.2658,0 2.6654,-1.27786 5.3322,-2.83968 7.488,-4.38526 45.0743,-17.81875 53.2578,-19.03455 2.3022,-0.34202 7.452,-1.49554 11.4441,-2.56338 3.9921,-1.06784 9.6814,-2.35767 12.643,-2.86629 2.9615,-0.50861 9.2534,-1.65151 13.9818,-2.53977 22.7688,-4.27719 39.7173,-6.04512 71.8121,-7.49088 11.4039,-0.51371 23.1861,-1.42653 26.1825,-2.02848 7.1337,-1.43307 44.0152,-1.353 53.721,0.11663 5.1997,0.78733 29.2193,1.08762 76.3635,0.95469 40.4825,-0.11415 76.8918,0.26752 88.5007,0.92772 10.8477,0.61691 30.419,1.50118 43.4918,1.96505 13.0729,0.46386 27.1824,1.31606 31.3546,1.89376 4.1722,0.5777 14.7459,1.07035 23.4971,1.09478 8.7513,0.0244 19.2196,0.55674 23.2631,1.18292 9.4881,1.46937 32.1983,7.41724 38.7062,10.1373 2.7815,1.16254 7.7881,3.21322 11.1258,4.55706 8.5826,3.45552 21.9518,10.39447 37.7005,19.56743 4.2978,2.50331 9.0023,5.23419 10.4544,6.06862 2.9291,1.6831 8.4042,5.44967 14.5542,10.01232 2.2252,1.65085 7.0042,4.53895 10.6201,6.41801 3.6159,1.87907 10.7851,5.76563 15.9317,8.63682 9.3357,5.20828 14.5141,7.03159 26.1038,9.19106 9.4709,1.76468 11.7633,1.46899 26.5618,-3.42603 7.5956,-2.51246 16.3388,-4.97534 19.4294,-5.47307 3.0906,-0.49772 12.2322,-3.17113 20.3147,-5.94091 8.0825,-2.76979 18.0973,-5.73948 22.2551,-6.59933 4.1578,-0.85985 12.0897,-3.14713 17.6265,-5.08284 36.0462,-12.60207 43.4789,-15.0155 48.9646,-15.89895 3.373,-0.5432 16.9601,-4.82299 30.1935,-9.51065 13.2335,-4.68766 26.0866,-9.00492 28.5624,-9.59391 2.4759,-0.589 7.2769,-1.72235 10.6689,-2.51856 3.392,-0.79622 14.5906,-4.40681 24.8858,-8.02355 10.2951,-3.61673 24.2266,-7.99064 30.9588,-9.71978 6.7322,-1.72915 18.7461,-5.45536 26.6975,-8.28048 30.3628,-10.78781 76.3879,-26.12209 81.7177,-27.22609 3.0596,-0.63375 17.1691,-5.24572 31.3546,-10.24881 14.1854,-5.00309 30.7982,-10.35356 36.9174,-11.88992 6.1192,-1.53637 22.0965,-6.44595 35.5051,-10.91019 13.4086,-4.46423 28.3173,-9.10333 33.1303,-10.30911 4.813,-1.20577 17.0548,-5.1657 27.204,-8.79983 40.6517,-14.55626 47.2412,-16.74602 58.9105,-19.57645 6.6755,-1.61917 17.8266,-5.02012 24.7802,-7.55766 13.9995,-5.10874 23.7088,-8.06364 29.8374,-9.0806 2.2251,-0.36924 9.0523,-2.19032 15.1715,-4.04685 6.1192,-1.85653 13.4016,-3.81392 16.183,-4.34975 2.7815,-0.53582 8.2432,-1.76238 12.1373,-2.72568 3.894,-0.9633 11.4039,-2.81574 16.6887,-4.11653 10.1619,-2.50125 22.5417,-4.74437 35.906,-6.50584 4.4503,-0.58658 11.5051,-1.57572 15.6773,-2.19809 4.1722,-0.62238 12.8199,-1.49906 19.2173,-1.94819 6.3973,-0.44912 19.4828,-1.37455 29.0788,-2.0565 13.7651,-0.97823 21.1295,-0.97873 34.8946,-0.002 9.596,0.68064 23.1366,1.62154 30.0902,2.09089 6.9537,0.46935 17.6496,1.80068 23.7688,2.95851 6.1192,1.15784 13.0099,2.11207 15.3127,2.12052 6.8392,0.0251 28.1794,4.37671 52.4536,10.6962 5.0066,1.30341 11.6062,2.9123 14.6658,3.57532 3.0596,0.66302 15.8037,4.72142 28.3203,9.01867 12.5165,4.29725 26.1709,8.58491 30.3431,9.52813 9.1999,2.07985 38.1728,12.5588 46.246,16.72633 3.2136,1.65893 8.1187,3.54909 10.9002,4.20034 15.4861,3.62598 21.1427,5.43271 25.0227,7.99234 5.2602,3.47016 3.3608,2.7436 52.8579,20.2188 22.2516,7.85604 43.5298,15.39053 47.2847,16.74332 3.755,1.35278 9.8995,3.56795 13.6544,4.92259 3.755,1.35464 28.2191,10.05365 54.3648,19.33113 52.3234,18.56637 59.0542,21.11091 69.0518,26.10458 7.6334,3.81285 20.8447,8.2628 27.1708,9.152 6.2127,0.87324 18.5202,5.26491 20.9774,7.48531 1.1822,1.06834 5.3356,3.12181 9.2296,4.56326 16.0146,5.9281 60.4616,21.79083 86.9836,31.04363 29.4522,10.27509 55.97,19.64044 67.2606,23.75461 39.7591,14.48782 80.889,28.37839 91.535,30.91362 17.6515,4.2035 26.3939,3.89893 39.2665,-1.36798 8.2993,-3.39574 12.1627,-5.65828 23.9483,-14.02513 2.5033,-1.77715 7.5099,-4.76692 11.1258,-6.64393 3.6159,-1.87701 9.988,-5.26156 14.1602,-7.52123 4.1721,-2.25967 9.8615,-5.21486 12.6429,-6.56709 2.7815,-1.35224 5.7399,-2.88988 6.5744,-3.41697 5.3169,-3.3586 12.8362,-6.52673 29.3316,-12.35839 34.6414,-12.24682 32.3376,-11.93479 87.8448,-11.8978 24.2813,0.0162 46.8787,0.47908 50.2164,1.02866 3.4368,0.56589 29.7548,1.02087 60.6862,1.04914 35.0724,0.032 56.2464,0.43682 59.1691,1.13112 2.7217,0.64654 28.5417,1.42205 64.2262,1.92904 73.7473,1.04778 86.8114,1.93936 123.9011,8.45586 4.7285,0.83078 12.9211,2.26451 18.2059,3.18608 26.1271,4.5561 68.4235,18.0037 82.5397,26.24244 2.2843,1.33322 6.6082,3.38943 9.6086,4.56935 3.0004,1.17992 6.1897,2.8064 7.0873,3.6144 0.8976,0.808 5.2981,2.99218 9.7789,4.85373 4.4808,1.86155 14.6699,7.70487 22.6425,12.98515 7.9726,5.28028 16.7713,10.77018 19.5528,12.19977 2.7815,1.42959 7.8598,5.2438 11.2853,8.47602 3.4255,3.23223 7.9126,7.01464 9.9715,8.40537 2.0588,1.39072 5.0273,3.66646 6.5967,5.05718 1.5693,1.39073 5.0472,4.47358 7.7287,6.8508 2.6814,2.37721 6.1509,5.33566 7.71,6.57434 1.5592,1.23867 3.9385,3.39 5.2875,4.78073 1.349,1.39072 2.8777,2.91029 3.3971,3.37682 0.5194,0.46652 2.0708,1.99747 3.4477,3.4021 2.6018,2.65443 4.5291,4.6116 7.5375,7.65426 0.9735,0.98461 3.363,3.59262 5.31,5.79556 5.4239,6.13682 6.6395,7.46062 8.3593,9.10293 5.6527,5.39812 10.858,11.20898 10.858,12.1212 0,0.58897 1.1403,1.5904 2.534,2.22541 1.6713,0.76152 2.8891,2.47345 3.5772,5.02875 0.7148,2.65467 1.9601,4.34835 3.9561,5.38051 1.9491,1.0079 3.1472,2.59986 3.621,4.81108 0.4151,1.93729 2.1241,4.48616 4.13,6.15984 2.6565,2.21644 3.4219,3.62371 3.4219,6.29121 0,2.64891 0.6986,3.95264 3.0496,5.69077 1.8358,1.35732 3.4615,3.78463 4.0847,6.0989 0.5693,2.11433 1.4728,3.84424 2.0076,3.84424 2.1052,0 5.0182,4.17744 5.0182,7.19651 0,2.27191 0.9475,4.03518 3.3969,6.32148 2.3386,2.18285 3.5919,4.4302 4.0227,7.21315 0.5954,3.84631 1.2087,4.67326 5.2883,7.13036 1.2305,0.74111 1.9018,2.79995 2.2391,6.86773 0.4217,5.08447 0.829,5.9889 3.2649,7.24853 3.1151,1.61088 4.0397,3.35622 4.0397,7.6255 0,1.60144 0.7154,3.49859 1.5897,4.21589 5.2706,4.32412 5.4904,4.76227 5.4904,10.94654 0,5.62552 0.2766,6.37894 3.54,9.64237 3.3286,3.32861 3.54,3.9376 3.54,10.1971 0,6.275 0.1974,6.83905 3.4393,9.82779 l 3.4393,3.17073 0.3536,12.84023 0.3536,12.84023 3.4812,3.59107 c 3.3732,3.47967 3.4936,3.88146 3.8807,12.95142 0.3865,9.05446 0.5041,9.44886 3.5989,12.06915 l 3.1993,2.70881 0.5058,169.74124 c 0.4724,158.5808 0.621,169.9519 2.2592,172.9463 1.4876,2.7189 1.8333,7.0916 2.2791,28.8259 0.2891,14.0915 0.9706,33.586 1.5144,43.3211 0.5438,9.735 0.9974,45.7428 1.008,80.0173 l 0.019,62.3171 3.0343,3.8182 c 3.8792,4.8813 3.9628,8.732 0.2529,11.6482 l -2.7815,2.1864 -0.5057,41.126 -0.5057,41.1259 -2.9918,6.5744 c -2.8405,6.2417 -3.0092,7.3794 -3.3353,22.4897 l -0.3436,15.9154 -3.4918,2.6634 c -1.9206,1.4648 -3.4919,3.5531 -3.4919,4.6406 0,1.7927 -2.263,4.6433 -9.481,11.9428 -4.8932,4.9485 -8.6068,7.0786 -17.458,10.0143 -11.1288,3.6909 -22.9328,5.1507 -41.6798,5.1544 -10.3048,0 -17.3363,0.5704 -24.2745,1.9622 -6.6228,1.3285 -15.1253,2.0612 -26.4085,2.2757 -9.1525,0.174 -15.9205,0.1797 -15.0398,0.013 z m -437.865,-0.9278 c 1.5374,-0.2325 3.8132,-0.2263 5.0572,0.014 1.244,0.2401 -0.014,0.4303 -2.7954,0.4227 -2.7815,-0.01 -3.7993,-0.204 -2.2618,-0.4365 z m 398.5385,-0.027 c 4.3367,-0.19 11.1639,-0.1888 15.1716,0 4.0076,0.1915 0.4595,0.347 -7.8849,0.3456 -8.3444,0 -11.6234,-0.1581 -7.2867,-0.3482 z m -413.2408,-0.9887 c 1.7955,-0.2235 4.9815,-0.2271 7.08,-0.01 2.0985,0.219 0.6295,0.4018 -3.2646,0.4063 -3.894,0 -5.611,-0.1747 -3.8154,-0.3981 z m -16.919,-1.2929 c -4.1382,-0.6434 -4.23,-0.7146 -1.0115,-0.7846 1.947,-0.042 5.5882,0.2875 8.0915,0.7329 4.0656,0.7235 4.1736,0.8072 1.0115,0.7846 -1.9471,-0.014 -5.5882,-0.3437 -8.0915,-0.7329 z m -42.4804,-1.9482 c -1.947,-0.3687 3.5147,-0.5087 12.1372,-0.311 8.6225,0.1977 16.36,0.5065 17.1945,0.6862 3.0094,0.6484 -25.8785,0.2788 -29.3317,-0.3752 z m -29.0292,-1.8399 c 4.8949,-0.1859 12.6324,-0.1849 17.1945,0 4.5621,0.1869 0.5572,0.339 -8.8998,0.3378 -9.4569,0 -13.1895,-0.1541 -8.2947,-0.3399 z m -20.0255,-1.2691 c -4.2062,-1.0703 -0.066,-1.1178 5.0572,-0.058 3.4016,0.7036 3.5626,0.8363 1.0114,0.8334 -1.6688,0 -4.3997,-0.3508 -6.0686,-0.7754 z m -2458.5507,-1.7697 c 23.5033,-0.1513 61.9632,-0.1513 85.4664,0 23.5033,0.1513 4.2734,0.2751 -42.7332,0.2751 -47.0065,0 -66.2365,-0.1238 -42.7332,-0.2751 z m 2434.5687,0.01 c 3.4986,-0.1981 8.9604,-0.1965 12.1373,0 3.1768,0.2001 0.3143,0.3621 -6.3612,0.3601 -6.6755,0 -9.2747,-0.1657 -5.7761,-0.3637 z m -2481.5813,-0.9625 c 0.9841,-0.2564 2.3496,-0.2396 3.0343,0.037 0.6848,0.277 -0.1204,0.4868 -1.7892,0.4662 -1.6689,-0.021 -2.2292,-0.2473 -1.2451,-0.5037 z m 179.258,-0.4564 c 3.8232,-0.7078 35.083,-1.0025 31.8603,-0.3004 -0.8345,0.1818 -9.2547,0.4923 -18.7116,0.6899 -9.457,0.1977 -15.3739,0.022 -13.1487,-0.3895 z m 2292.1693,0.4875 c 0.6954,-0.2806 1.8332,-0.2806 2.5286,0 0.6954,0.2805 0.1264,0.5101 -1.2643,0.5101 -1.3907,0 -1.9597,-0.2296 -1.2643,-0.5101 z m -2492.6446,-1.0926 c 3.7781,-0.1951 9.695,-0.1937 13.1486,0 3.4537,0.1969 0.3626,0.3566 -6.8692,0.3548 -7.2318,0 -10.0575,-0.1629 -6.2794,-0.358 z m 2466.3472,0 c 4.5894,-0.1874 12.0994,-0.1874 16.6887,0 4.5894,0.1874 0.8345,0.3407 -8.3443,0.3407 -9.1788,0 -12.9338,-0.1533 -8.3444,-0.3407 z m -2490.4109,-1.322 c -1.9953,-0.5417 -0.9563,-0.6305 3.0343,-0.2594 3.3377,0.3103 6.2582,0.7349 6.49,0.9434 0.7526,0.6769 -6.4044,0.1629 -9.5243,-0.684 z m 269.548,0 c 6.1035,-1.0861 10.8876,-0.9918 5.5629,0.1096 -2.2252,0.4603 -5.4112,0.8061 -7.0801,0.7686 -2.2754,-0.051 -1.8959,-0.2709 1.5172,-0.8782 z m 2195.3241,0 c -1.9952,-0.5417 -0.9562,-0.6305 3.0344,-0.2594 3.3377,0.3103 6.2582,0.7349 6.49,0.9434 0.7526,0.6769 -6.4045,0.1629 -9.5244,-0.684 z m -2489.3995,-1.7099 c 3.755,-0.1946 9.8995,-0.1946 13.6544,0 3.755,0.1946 0.6827,0.3539 -6.8272,0.3539 -7.5099,0 -10.5821,-0.1593 -6.8272,-0.3539 z m 308.4883,0.013 c 2.0861,-0.2182 5.4997,-0.2182 7.5858,0 2.0861,0.2182 0.3793,0.3967 -3.7929,0.3967 -4.1722,0 -5.879,-0.1785 -3.7929,-0.3967 z m 2106.8235,-0.021 c 12.6556,-0.1605 33.3648,-0.1605 46.0204,0 12.6556,0.1605 2.301,0.2918 -23.0102,0.2918 -25.3112,0 -35.6658,-0.1313 -23.0102,-0.2918 z m -2432.2534,-1.2653 -5.0571,-0.6936 4.5514,-0.058 c 2.5033,-0.032 5.6894,0.3063 7.0801,0.7517 3.1467,1.0078 0.7731,1.0078 -6.5744,0 z m 339.3372,0.01 c 2.497,-0.8046 11.8578,-1.3576 11.0415,-0.6523 -0.2318,0.2003 -3.3799,0.6123 -6.9958,0.9156 -3.9449,0.331 -5.563,0.2256 -4.0457,-0.2633 z m 2059.7916,-0.01 -5.0572,-0.6936 4.5515,-0.039 c 2.5033,-0.022 5.9169,0.3082 7.5858,0.7329 2.6634,0.6777 2.7252,0.7673 0.5057,0.7329 -1.3907,-0.022 -4.8043,-0.3514 -7.5858,-0.7329 z m -2420.8746,-2.0761 c -2.279,-0.5139 -1.018,-0.6023 3.54,-0.248 3.894,0.3027 7.2697,0.7218 7.5015,0.9315 0.7224,0.6534 -7.3214,0.1555 -11.0415,-0.6835 z m 381.396,0.6856 c 0.2318,-0.2085 3.1523,-0.6331 6.4901,-0.9434 3.9905,-0.3711 5.0296,-0.2822 3.0343,0.2594 -3.1199,0.8469 -10.2769,1.3609 -9.5244,0.684 z m 1993.4582,-0.6513 c -1.5708,-0.5149 -0.2299,-0.615 3.5401,-0.2645 3.3377,0.3104 6.2582,0.7287 6.49,0.9296 0.8159,0.7071 -7.5324,0.1535 -10.0301,-0.6651 z m -2385.2215,-1.7063 c 1.2517,-0.2411 3.2998,-0.2411 4.5515,0 1.2516,0.2411 0.2276,0.4383 -2.2757,0.4383 -2.5034,0 -3.5274,-0.1972 -2.2758,-0.4383 z m 408.1149,-0.023 c 2.0861,-0.2182 5.4997,-0.2182 7.5858,0 2.0861,0.2182 0.3793,0.3967 -3.7929,0.3967 -4.1722,0 -5.879,-0.1785 -3.7929,-0.3967 z m 1966.2337,0.012 c 1.5298,-0.2317 4.0331,-0.2317 5.5629,0 1.5298,0.2318 0.2781,0.4214 -2.7815,0.4214 -3.0596,0 -4.3112,-0.1896 -2.7814,-0.4214 z m -2384.7158,-1.2984 -4.0458,-0.7244 3.5401,-0.043 c 1.947,-0.024 4.6779,0.3217 6.0686,0.7671 3.2498,1.0408 0.25,1.0408 -5.5629,0 z m 433.4008,0.034 c 2.506,-0.8361 9.829,-1.3856 9.0186,-0.6766 -0.2318,0.2028 -2.9247,0.6278 -5.9843,0.9445 -3.5912,0.3717 -4.6667,0.2768 -3.0343,-0.2679 z m 1938.9249,-0.034 c -2.6859,-0.5654 -2.93,-0.7632 -1.0115,-0.82 1.3908,-0.041 4.3492,0.3017 6.5744,0.762 3.3725,0.6976 3.5408,0.834 1.0114,0.82 -1.6689,-0.01 -4.6273,-0.3522 -6.5743,-0.762 z m -2393.0602,-2.6487 -6.5743,-1.3469 6.0686,0.6172 c 3.3378,0.3395 8.1168,0.9501 10.6201,1.357 l 4.5515,0.7397 -4.0458,-0.01 c -2.2251,-0.01 -7.0042,-0.6162 -10.6201,-1.357 z m 468.3797,1.2727 c 0.2318,-0.2005 4.0626,-0.6035 8.5129,-0.8956 4.5905,-0.3013 6.7786,-0.1953 5.0572,0.2449 -3.0657,0.784 -14.3497,1.3251 -13.5701,0.6507 z m 1915.8304,-0.3326 c 0.9735,-0.2544 2.5665,-0.2544 3.54,0 0.9735,0.2544 0.177,0.4625 -1.77,0.4625 -1.947,0 -2.7435,-0.2081 -1.77,-0.4625 z m -4.4882,-1.0052 c 0.7301,-0.2922 1.6024,-0.2562 1.9385,0.08 0.3361,0.336 -0.2612,0.5751 -1.3275,0.5312 -1.1782,-0.049 -1.4179,-0.2882 -0.611,-0.6111 z M 2229.97,1582.2873 c 1.7956,-0.2234 4.9816,-0.2271 7.0801,-0.01 2.0985,0.2189 0.6294,0.4017 -3.2646,0.4062 -3.8941,0 -5.611,-0.1747 -3.8155,-0.3981 z m 1879.4401,-0.8099 c -3.1065,-0.7543 -11.0716,-3.2457 -17.7001,-5.5363 -6.6285,-2.2907 -15.0103,-5.0112 -18.6262,-6.0456 -3.6159,-1.0344 -9.7604,-3.272 -13.6544,-4.9725 -3.894,-1.7005 -18.2311,-7.0207 -31.8603,-11.8228 -13.6291,-4.8021 -28.1938,-10.4878 -32.3659,-12.6349 -8.6024,-4.4269 -17.8117,-8.0124 -29.7361,-11.5772 -4.506,-1.3471 -12.7443,-4.2646 -18.3072,-6.4833 -5.5629,-2.2187 -35.375,-12.9587 -66.2491,-23.8667 -30.8741,-10.908 -59.0932,-20.9077 -62.7091,-22.2215 -26.5914,-9.6619 -44.155,-16.4497 -51.0776,-19.7397 -4.4503,-2.1151 -19.2426,-7.7884 -32.8717,-12.6073 -13.6291,-4.8188 -27.7387,-9.8395 -31.3546,-11.1569 -3.6158,-1.3174 -10.443,-3.7404 -15.1715,-5.3843 -31.6593,-11.0069 -61.0078,-22.2458 -71.3063,-27.3064 -3.3378,-1.6402 -11.2399,-4.723 -17.5602,-6.8509 -6.3204,-2.1278 -11.0779,-4.0066 -10.5721,-4.1752 1.4574,-0.4858 25.3096,8.1926 34.7353,12.6382 9.6275,4.5408 24.088,9.9567 75.3234,28.2109 60.8815,21.6909 62.141,22.1586 71.812,26.663 8.8773,4.1347 43.0832,16.8912 83.9493,31.3075 24.9063,8.7861 30.5523,10.7957 46.779,16.65 3.7549,1.3547 17.068,6.1057 29.5845,10.5579 12.5165,4.4521 25.0331,9.0125 27.8145,10.1341 2.7815,1.1216 9.6087,3.4601 15.1716,5.1967 5.5629,1.7365 14.7947,5.408 20.5151,8.1587 10.8007,5.1936 15.8182,7.1409 48.7683,18.9268 10.8477,3.8801 21.9988,7.9699 24.7802,9.0884 8.8478,3.5578 39.1984,13.2978 46.0204,14.7687 3.6159,0.7795 5.4365,1.4252 4.0457,1.4347 -1.3907,0.01 -5.0703,-0.5999 -8.1769,-1.3541 z m -2381.3432,-0.483 c -2.7255,-0.6935 -2.777,-0.774 -0.5057,-0.7909 1.3907,-0.01 3.6665,0.3455 5.0572,0.7909 1.9814,0.6346 2.0908,0.8057 0.5057,0.791 -1.1126,-0.01 -3.3883,-0.3663 -5.0572,-0.791 z m 517.8558,0 c 1.6689,-0.4246 4.3998,-0.7736 6.0686,-0.7754 2.5512,0 2.3902,0.1299 -1.0114,0.8334 -5.1235,1.0598 -9.2633,1.0123 -5.0572,-0.058 z m -526.2001,-1.7086 c 0.9735,-0.2544 2.5665,-0.2544 3.54,0 0.9735,0.2544 0.177,0.4625 -1.77,0.4625 -1.947,0 -2.7435,-0.2081 -1.77,-0.4625 z m 544.6985,-0.053 c 3.4986,-0.1981 8.9604,-0.1964 12.1372,0 3.1769,0.2001 0.3144,0.3622 -6.3611,0.3602 -6.6755,0 -9.2747,-0.1657 -5.7761,-0.3638 z m -554.0543,-1.273 c -3.4306,-0.7221 -3.4462,-0.7461 -0.5057,-0.7775 1.6688,-0.018 4.1721,0.3321 5.5629,0.7775 3.3164,1.0621 -0.011,1.0621 -5.0572,0 z m 574.4962,-0.05 c 2.5361,-0.7625 16.8899,-1.2884 16.0988,-0.5898 -0.2318,0.2047 -4.5178,0.5922 -9.5244,0.8611 -5.0066,0.269 -7.9651,0.1469 -6.5744,-0.2713 z m -585.622,-1.9734 c -1.9814,-0.6345 -2.0909,-0.8057 -0.5057,-0.7909 1.1125,0.01 3.3883,0.3663 5.0571,0.7909 2.7256,0.6936 2.777,0.7741 0.5058,0.791 -1.3908,0.01 -3.6665,-0.3456 -5.0572,-0.791 z m 604.9236,0.6324 c 0.2318,-0.2085 3.1524,-0.633 6.4901,-0.9434 3.9905,-0.3711 5.0296,-0.2822 3.0343,0.2594 -3.1199,0.847 -10.2769,1.3609 -9.5244,0.684 z m -621.8652,-2.3806 c 2.0861,-0.2182 5.4997,-0.2182 7.5858,0 2.0861,0.2182 0.3793,0.3967 -3.7929,0.3967 -4.1722,0 -5.879,-0.1785 -3.7929,-0.3967 z m 643.7797,-0.012 c 3.4768,-0.1975 9.1662,-0.1975 12.643,0 3.4768,0.1975 0.6321,0.3591 -6.3215,0.3591 -6.9536,0 -9.7983,-0.1616 -6.3215,-0.3591 z m -662.2384,-1.274 -8.5972,-0.6345 7.5857,-0.1302 c 4.1722,-0.072 9.4064,0.2464 11.6316,0.7067 4.8749,1.0084 2.4356,1.0217 -10.6201,0.058 z m 684.2372,-0.034 c 3.0903,-0.7521 18.384,-1.281 17.6158,-0.6093 -0.2318,0.2028 -4.9729,0.5889 -10.5358,0.8582 -5.5629,0.2693 -8.7489,0.1573 -7.08,-0.2489 z m 28.9102,-1.3569 c 0.2318,-0.2085 3.1523,-0.633 6.4901,-0.9434 3.9905,-0.371 5.0296,-0.2822 3.0343,0.2594 -3.1199,0.847 -10.2769,1.3609 -9.5244,0.684 z m 21.9145,-2.3963 c 4.5894,-0.1874 12.0993,-0.1874 16.6887,0 4.5894,0.1874 0.8344,0.3408 -8.3444,0.3408 -9.1788,0 -12.9337,-0.1534 -8.3443,-0.3408 z m 29.0788,-1.2437 c 3.0742,-0.8092 12.3223,-1.3464 11.5472,-0.6707 -0.2318,0.2021 -3.6074,0.6154 -7.5015,0.9185 -4.2943,0.3342 -5.8861,0.2367 -4.0457,-0.2478 z m 40.036,-1.4055 c 0.2318,-0.2021 3.6075,-0.6154 7.5015,-0.9185 4.2944,-0.3342 5.8862,-0.2367 4.0458,0.2478 -3.0742,0.8093 -12.3223,1.3464 -11.5473,0.6707 z m 16.8691,-2.3708 c 1.2582,-0.2419 3.0787,-0.2328 4.0458,0.02 0.967,0.2531 -0.062,0.4511 -2.2876,0.4399 -2.2251,-0.011 -3.0163,-0.2184 -1.7582,-0.4603 z m 9.344,-1.3075 c 1.3907,-0.4454 3.6665,-0.8014 5.0572,-0.791 2.2713,0.017 2.2198,0.097 -0.5057,0.791 -1.6689,0.4246 -3.9446,0.7805 -5.0572,0.7909 -1.5851,0.015 -1.4757,-0.1564 0.5057,-0.7909 z m 21.2402,-4.0446 c 7.5099,-1.5835 20.1645,-5.19 28.1212,-8.0145 7.9568,-2.8244 15.1629,-5.1354 16.0135,-5.1354 0.8506,0 4.8089,-1.4356 8.7962,-3.1903 8.1949,-3.6064 37.6366,-14.0269 39.4443,-13.9609 0.6505,0.024 -7.0099,2.9678 -17.0231,6.5422 -10.0133,3.5744 -19.7989,7.3849 -21.7459,8.4677 -1.947,1.0828 -5.3606,2.3012 -7.5858,2.7074 -2.2252,0.4063 -10.4178,2.9865 -18.2059,5.7339 -13.1208,4.6286 -34.6576,9.9855 -39.4235,9.8059 -1.125,-0.042 4.0991,-1.3726 11.609,-2.956 z m 97.3466,-31.3564 c 2.0838,-0.5376 6.4077,-2.2824 9.6087,-3.8775 3.201,-1.595 11.2817,-4.8225 17.9572,-7.1723 11.6145,-4.0883 17.5043,-6.1901 32.6188,-11.64 15.9629,-5.7559 73.002,-25.8313 77.7994,-27.3822 2.8758,-0.9296 6.0618,-1.4751 7.08,-1.2121 1.5857,0.4096 1.5458,0.4951 -0.2781,0.5956 -4.4153,0.2432 -124.8297,43.0717 -133.7294,47.5643 -3.3519,1.692 -8.0633,3.3071 -10.4698,3.589 l -4.3755,0.5126 z m 152.4784,-53.5984 c 9.0996,-2.9954 62.8558,-21.5766 81.9264,-28.3183 9.735,-3.4415 32.2648,-11.4191 50.0661,-17.7281 34.5129,-12.2316 35.5813,-12.5805 55.3502,-18.0749 10.7352,-2.9837 36.6785,-11.8171 71.838,-24.4601 3.755,-1.3503 9.8995,-3.561 13.6544,-4.9128 24.5091,-8.8231 36.0281,-12.7036 37.5027,-12.6339 0.9298,0.044 -0.3577,0.7669 -2.861,1.6067 -2.5033,0.8399 -7.5099,2.5973 -11.1258,3.9056 -11.5011,4.1611 -56.0341,19.8969 -58.6633,20.7287 -1.3907,0.44 -7.7628,2.702 -14.1601,5.0266 -18.3126,6.6543 -30.9253,10.7236 -43.4918,14.0318 -11.4148,3.005 -20.2603,5.9178 -43.4918,14.3216 -6.3974,2.3141 -12.7694,4.5675 -14.1601,5.0075 -1.3908,0.44 -13.6797,4.7558 -27.3089,9.5907 -62.1393,22.0436 -96.9887,33.9495 -99.0297,33.8324 -0.8845,-0.051 0.8951,-0.9163 3.9547,-1.9235 z m 814.2068,-86.3957 c -1.947,-0.7365 -6.0433,-2.4592 -9.1029,-3.8281 -3.0596,-1.369 -8.2938,-3.2723 -11.6315,-4.2297 -3.3378,-0.9574 -8.3444,-2.5766 -11.1259,-3.5982 -2.7814,-1.0217 -9.6086,-3.2602 -15.1715,-4.9744 -5.5629,-1.7143 -11.935,-4.0704 -14.1601,-5.2359 -2.2252,-1.1654 -14.2866,-5.7609 -26.8031,-10.2123 -12.5165,-4.4514 -25.7158,-9.1733 -29.3317,-10.4933 -3.6159,-1.3199 -20.9114,-7.4853 -38.4346,-13.7008 -17.5231,-6.2155 -38.2323,-13.5799 -46.0204,-16.3653 -7.788,-2.7854 -16.6634,-5.8795 -19.723,-6.8759 -3.0596,-0.9963 -4.8442,-1.853 -3.9658,-1.9038 1.5435,-0.089 19.2141,5.8915 45.4347,15.3774 6.9536,2.5156 30.8488,11.0164 53.1005,18.8907 54.6035,19.3227 53.2029,18.8118 65.2377,23.7982 5.841,2.4201 13.8061,5.3968 17.7001,6.6148 17.6119,5.5086 37.3526,12.2701 40.2826,13.7973 1.7651,0.9201 5.0298,2.2486 7.2549,2.9524 2.2252,0.7037 3.1355,1.2899 2.0229,1.3027 -1.1126,0.013 -3.6159,-0.5793 -5.5629,-1.3158 z m -493.5813,-22.3523 c 8.6212,-2.3985 23.6178,-7.4337 47.9117,-16.0866 7.1594,-2.5501 13.759,-4.607 14.6658,-4.5711 0.9068,0.036 -2.6751,1.5735 -7.9599,3.4169 -33.3123,11.6193 -40.9805,14.2051 -49.9439,16.8417 -5.4956,1.6165 -10.7298,2.9058 -11.6315,2.865 -0.9017,-0.041 2.2294,-1.1504 6.9578,-2.4659 z m 67.7663,-21.8021 c 14.2056,-4.2369 72.2438,-23.9843 92.0408,-31.3169 1.3907,-0.5151 6.6249,-1.8481 11.6315,-2.9623 5.0066,-1.1142 12.0614,-2.9414 15.6773,-4.0605 3.6159,-1.1191 8.1673,-1.9653 10.1144,-1.8806 l 3.54,0.1542 -3.54,0.3946 c -1.9471,0.2171 -7.1813,1.4681 -11.6316,2.78 -4.4503,1.3119 -11.3955,3.116 -15.4339,4.0092 -6.4243,1.4208 -28.5391,8.7983 -48.7923,16.2769 -14.3905,5.3138 -49.2915,16.5435 -53.1005,17.0855 l -4.0457,0.5757 z m 1464.5609,-1.4076 c -0.8344,-0.2009 -4.9308,-0.9179 -9.1029,-1.5931 -43.9631,-7.1154 -84.7887,-42.792 -98.9339,-86.4562 -4.7109,-14.5417 -5.7499,-21.7588 -5.7499,-39.9394 0,-10.1495 0.5496,-19.4629 1.4025,-23.7688 10.2169,-51.5781 51.1975,-92.5587 102.7756,-102.7755 4.3058,-0.853 13.6192,-1.4025 23.7687,-1.4025 10.1495,0 19.4629,0.5495 23.7688,1.4025 51.5781,10.2168 92.5587,51.1974 102.7756,102.7755 0.8529,4.3059 1.4024,13.6193 1.4024,23.7688 0,10.1495 -0.5495,19.4629 -1.4024,23.7687 -10.0208,50.5878 -49.3028,90.7652 -99.9191,102.1965 -6.2752,1.4172 -36.978,2.9405 -40.7854,2.0235 z m -2637.8279,-32.366 c -0.8345,-0.2009 -4.9308,-0.9178 -9.1029,-1.5931 -43.9631,-7.1154 -84.7887,-42.792 -98.9339,-86.4562 -4.7109,-14.5417 -5.7499,-21.7588 -5.7499,-39.9394 0,-10.1495 0.5495,-19.4629 1.4025,-23.7688 10.2169,-51.5781 51.1974,-92.5586 102.7755,-102.7755 4.3059,-0.853 13.6193,-1.4025 23.7688,-1.4025 10.1495,0 19.4629,0.5495 23.7688,1.4025 51.5781,10.2169 92.5586,51.1974 102.7755,102.7755 0.853,4.3059 1.4025,13.6193 1.4025,23.7688 0,10.1495 -0.5495,19.4629 -1.4025,23.7688 -10.0207,50.5878 -49.3027,90.7651 -99.919,102.1964 -6.2752,1.4172 -36.978,2.9405 -40.7854,2.0235 z m 1366.7043,-4.2792 c 0.9736,-0.2544 2.5666,-0.2544 3.5401,0 0.9735,0.2544 0.177,0.4626 -1.77,0.4626 -1.9471,0 -2.7436,-0.2082 -1.7701,-0.4626 z m -9.8615,-1.3256 -4.0457,-0.7244 3.54,-0.043 c 1.947,-0.024 4.6779,0.3217 6.0686,0.7671 3.2499,1.0408 0.25,1.0408 -5.5629,0 z m -44.9246,-1.3926 c 0.2318,-0.2097 3.6074,-0.6366 7.5015,-0.9487 5.4411,-0.4361 6.1435,-0.3613 3.0343,0.3229 -4.0889,0.8999 -11.3133,1.3289 -10.5358,0.6258 z m 29.2474,-0.6303 c -5.0551,-1.064 0.1308,-1.1082 6.0686,-0.052 4.1055,0.7305 4.2046,0.8092 1.0114,0.8033 -1.947,0 -5.133,-0.3419 -7.08,-0.7517 z m -11.8844,-1.7359 c 1.5298,-0.2317 4.0331,-0.2317 5.5629,0 1.5298,0.2318 0.2781,0.4214 -2.7815,0.4214 -3.0596,0 -4.3112,-0.1896 -2.7814,-0.4214 z"
         id="path15"
         inkscape:export-filename="outer.svg"
         inkscape:export-xdpi="96"
         inkscape:export-ydpi="96" /><path
         style="fill:#131313"
         d="m 4517.6104,1606.182 c -5.5629,-0.4812 -14.8934,-1.3681 -20.7344,-1.9708 -11.7706,-1.2145 -40.6673,-2.7166 -73.835,-3.8381 -11.9602,-0.4044 -22.301,-1.0796 -22.9796,-1.5005 -1.5488,-0.9608 -29.8887,-2.618 -60.9696,-3.5652 -13.0729,-0.3985 -24.4515,-1.1648 -25.286,-1.703 -0.8855,-0.5711 -22.5714,-1.2803 -52.089,-1.7034 -60.5733,-0.8683 -95.764,-2.0865 -104.6837,-3.6237 -3.6159,-0.6232 -12.0361,-1.8567 -18.7116,-2.7412 -6.6755,-0.8844 -16.4611,-2.5053 -21.7459,-3.6019 -9.1873,-1.9064 -38.397,-11.0205 -49.0547,-15.3061 -2.7814,-1.1185 -13.9325,-5.2083 -24.7802,-9.0884 -32.9501,-11.7859 -37.9676,-13.7332 -48.7683,-18.9268 -5.7204,-2.7507 -14.9522,-6.4222 -20.5151,-8.1587 -5.5629,-1.7366 -12.3901,-4.0751 -15.1716,-5.1967 -2.7814,-1.1216 -15.298,-5.682 -27.8145,-10.1341 -12.5165,-4.4522 -25.8296,-9.2032 -29.5845,-10.5579 -16.2267,-5.8543 -21.8727,-7.8639 -46.779,-16.65 -40.8661,-14.4163 -75.072,-27.1728 -83.9493,-31.3075 -9.671,-4.5044 -10.9305,-4.9721 -71.812,-26.663 -51.7794,-18.4481 -65.7059,-23.6728 -75.8578,-28.4591 -5.0066,-2.3605 -15.7026,-6.4498 -23.7688,-9.0872 -8.0662,-2.6375 -16.9415,-5.7175 -19.723,-6.8445 -5.5485,-2.2481 -32.2807,-11.4092 -43.4918,-14.9045 -3.894,-1.214 -11.8591,-4.1875 -17.7001,-6.6076 -12.0348,-4.9864 -10.6342,-4.4755 -65.2377,-23.7982 -22.2517,-7.8743 -46.1469,-16.3751 -53.1005,-18.8907 -28.0185,-10.1364 -43.3941,-15.2711 -47.6302,-15.9063 -2.4523,-0.3677 -6.507,-1.0705 -9.0103,-1.5617 -2.5033,-0.4913 -10.4683,-1.6495 -17.7001,-2.5738 -12.1178,-1.549 -14.0435,-1.5545 -24.5621,-0.071 -6.2774,0.8851 -13.5598,1.6127 -16.183,1.617 -2.6233,0 -7.728,0.9233 -11.3439,2.0424 -3.6159,1.1191 -10.6707,2.9463 -15.6773,4.0605 -5.0066,1.1142 -10.2408,2.4472 -11.6315,2.9623 -28.7112,10.6343 -85.2752,29.5692 -95.0751,31.8266 -3.6159,0.8329 -11.8085,3.3918 -18.2059,5.6864 -24.28,8.7087 -43.3086,14.901 -52.2106,16.9905 -5.0734,1.1909 -15.0867,4.248 -22.2516,6.7936 -12.2579,4.3551 -16.7775,5.9721 -33.5087,11.9885 -35.1595,12.643 -61.1028,21.4764 -71.838,24.4601 -19.7689,5.4944 -20.8373,5.8433 -55.3502,18.0749 -58.6481,20.7854 -67.4832,23.8878 -97.098,34.0953 -34.4537,11.8755 -40.8705,13.9488 -43.2035,13.9591 -0.9541,0 -3.9126,0.7331 -6.5744,1.6196 -5.0323,1.676 -65.4587,22.9715 -77.4103,27.281 -15.1145,5.4499 -21.0043,7.5517 -32.6188,11.64 -6.6755,2.3498 -14.6939,5.5458 -17.8187,7.1024 -3.1248,1.5566 -8.5866,3.5073 -12.1373,4.335 -7.8623,1.8327 -32.1041,10.2737 -42.0256,14.6334 -3.9873,1.752 -7.9445,3.1855 -8.7938,3.1855 -0.8494,0 -8.6229,2.4726 -17.2746,5.4946 -14.5734,5.0904 -22.4554,7.0226 -45.0684,11.0481 -19.1079,3.4015 -24.6759,3.9821 -46.0204,4.7988 -57.4434,2.1981 -65.9474,2.6272 -67.1821,3.3903 -0.7272,0.4494 -8.8937,1.1971 -18.1476,1.6615 -39.5402,1.9842 -52.7801,2.8175 -54.7635,3.447 -2.4738,0.7852 -18.7315,2.0899 -43.4245,3.4849 -9.7031,0.5482 -18.3509,1.2778 -19.2173,1.6214 -0.8664,0.3436 -6.5819,1.0275 -12.7011,1.5199 -6.1191,0.4924 -17.7254,1.6091 -25.7916,2.4817 -8.0662,0.8726 -19.7916,2.0007 -26.0563,2.5069 -6.2648,0.5063 -11.8274,1.1905 -12.3613,1.5205 -0.534,0.33 -6.7869,1.0237 -13.8955,1.5414 -23.0402,1.6783 -37.1658,3.0138 -38.7162,3.6605 -3.8795,1.6181 -58.5941,2.6952 -137.5555,2.708 -81.7012,0.013 -129.5332,-1.0097 -132.4837,-2.8332 -0.722,-0.4463 -9.3271,-1.1751 -19.1224,-1.6197 -20.4594,-0.9286 -35.345,-2.2311 -51.187,-4.4791 -6.1192,-0.8683 -16.1324,-2.2292 -22.2516,-3.0241 -13.4627,-1.749 -20.4357,-2.885 -49.5081,-8.0653 -11.2365,-2.0022 -28.862,-3.6241 -48.3019,-4.4446 -8.1797,-0.3453 -15.2887,-1.083 -15.7979,-1.6393 -0.5092,-0.5563 -1.7818,-5.3353 -2.828,-10.6201 -1.5905,-8.034 -1.8877,-14.0009 -1.8134,-36.4117 0.078,-23.464 0.3597,-28.0378 2.263,-36.7143 2.4945,-11.3711 2.2767,-25.4275 -0.6142,-39.6492 -3.5108,-17.2708 -1.8134,-43.2858 3.9095,-59.9196 1.8775,-5.4572 1.939,-10.5453 1.9519,-161.4906 0.013,-152.8097 0.053,-156.0436 2.0681,-165.4645 1.231,-5.7565 2.2816,-15.4881 2.6206,-24.2744 0.3842,-9.9609 1.1821,-16.775 2.487,-21.2402 3.5964,-12.3062 4.9354,-25.6986 4.9553,-49.56044 0.016,-19.63813 0.2872,-23.61244 1.9751,-28.99612 2.5031,-7.98373 5.0942,-25.3976 5.1108,-34.3485 0.01,-4.53656 0.8632,-9.61234 2.4614,-14.61578 3.1096,-9.7354 5.6172,-26.51999 5.6172,-37.59892 0,-4.97029 0.6261,-10.36762 1.4851,-12.80216 0.8167,-2.31498 2.1784,-7.86464 3.026,-12.33258 5.1489,-27.14261 19.8812,-61.02974 35.7918,-82.3278 3.3246,-4.45033 7.7659,-11.04995 9.8694,-14.66584 3.9153,-6.7302 21.3356,-26.284 36.7639,-41.2666 9.4822,-9.20834 27.9074,-22.91308 38.9877,-28.99938 3.8941,-2.13895 8.9007,-5.11826 11.1258,-6.6207 10.5943,-7.15327 39.1113,-21.30731 50.5719,-25.10065 23.2732,-7.70322 53.2807,-13.65187 77.7952,-15.42202 7.741,-0.55897 14.5109,-1.28593 15.0441,-1.61545 1.5201,-0.9395 39.2443,-2.73168 53.8191,-2.55681 7.2317,0.0868 52.7464,0.51068 101.1437,0.94204 51.0142,0.45468 88.6092,1.1794 89.4566,1.72447 0.8038,0.51711 13.5479,1.32115 28.3202,1.78675 66.8738,2.10781 74.9711,2.66094 86.5335,5.91113 8.1261,2.28425 28.67,13.15576 42.4803,22.47988 22.9193,15.47412 62.1729,35.86552 81.3359,42.25222 31.581,10.52542 78.9103,10.7482 111.262,0.52371 5.8855,-1.86008 13.6101,-3.92154 17.1657,-4.58101 3.5556,-0.65947 12.8861,-3.41696 20.7345,-6.12776 7.8483,-2.7108 18.1384,-5.83284 22.8669,-6.93786 4.7285,-1.10503 19.9759,-5.8592 33.8832,-10.56483 13.9072,-4.70563 29.1546,-9.46354 33.8831,-10.57314 4.7285,-1.10959 18.3829,-5.46696 30.3431,-9.68305 11.9603,-4.21609 26.3825,-8.82717 32.0495,-10.24685 5.667,-1.41969 20.2317,-5.95716 32.366,-10.08329 12.1343,-4.12613 26.7024,-8.66905 32.3736,-10.09538 5.6711,-1.42634 28.656,-9.01258 51.0775,-16.85831 22.4216,-7.84574 45.0903,-15.32517 50.3751,-16.62097 8.8085,-2.15979 36.8325,-11.3779 52.4719,-17.25988 3.5483,-1.33453 11.273,-3.61069 17.1659,-5.05814 5.8929,-1.44745 22.561,-6.64911 37.0402,-11.55925 14.4793,-4.91015 30.8774,-10.04867 36.4403,-11.41894 5.5629,-1.37026 24.4515,-7.59999 41.9747,-13.84383 17.5231,-6.24385 36.4117,-12.40173 41.9746,-13.68419 5.5629,-1.28246 17.8519,-5.02405 27.3088,-8.31463 9.4569,-3.29059 20.0097,-6.52797 23.4507,-7.19418 3.4409,-0.66621 9.5162,-2.3201 13.5007,-3.67531 3.9844,-1.3552 10.0445,-2.95048 13.4668,-3.54506 3.4222,-0.59459 9.4083,-1.95538 13.3023,-3.02398 35.6978,-9.79622 38.7835,-10.09417 104.6838,-10.10791 32.6602,-0.007 60.5759,0.44071 66.7548,1.07017 10.1235,1.03129 29.7424,4.97859 45.009,9.05574 3.894,1.03996 9.8109,2.4258 13.1487,3.07965 3.3377,0.65385 10.3925,2.77425 15.6772,4.71199 18.8187,6.90016 29.9713,10.5318 39.5568,12.88099 12.1088,2.96756 21.9121,6.4765 31.2939,11.20109 7.4869,3.77034 29.4106,11.56506 32.6024,11.59142 0.992,0.008 3.9505,1.10132 6.5743,2.42917 5.351,2.70792 18.1085,7.44967 59.3883,22.07361 15.5762,5.51806 39.699,14.06994 53.6062,19.00417 13.9073,4.93423 39.3955,13.94787 56.6405,20.03032 46.746,16.48768 55.6624,19.83172 66.7548,25.03623 9.8872,4.63899 37.8424,14.57348 41.0737,14.59642 0.8951,0.006 5.219,1.68062 9.6086,3.72059 8.0881,3.75877 22.4036,8.9724 96.9876,35.32236 22.8079,8.05786 51.4821,18.25085 63.7205,22.65108 85.7682,30.83738 106.4788,37.32509 130.9811,41.03051 12.9274,1.95498 41.783,1.899 55.4992,-0.10767 24.1897,-3.53891 63.06,-19.86717 86.6077,-36.38132 3.3377,-2.34078 9.4822,-5.96479 13.6544,-8.05336 4.1722,-2.08857 10.5442,-5.50711 14.1601,-7.59676 7.6723,-4.43384 27.2057,-11.57426 35.8389,-13.10089 8.8056,-1.5571 46.6526,-1.26582 59.2362,0.4559 8.0846,1.10615 23.5392,1.46557 64.732,1.50545 33.2305,0.0322 56.6489,0.46813 60.6862,1.12975 3.6159,0.59255 32.9729,1.48808 65.2377,1.99007 76.8074,1.19501 93.7637,2.72588 143.1183,12.92122 25.7925,5.32803 62.3212,22.44704 86.4779,40.52747 17.9018,13.39886 25.3796,19.85445 39.9518,34.49074 12.3972,12.45177 18.1192,19.04128 22.2516,25.62548 3.0596,4.87487 8.4085,13.22125 11.8865,18.54753 8.0432,12.31736 20.109,36.10503 25.4863,50.2457 2.4528,6.45017 4.9639,15.5873 6.1094,22.2306 1.0697,6.2036 3.1166,14.69287 4.5486,18.86504 5.9798,17.42209 5.5754,-3.93225 5.5754,294.39094 0,251.1229 -0.1361,274.0367 -1.6268,274.0367 -1.2715,0 -1.4727,0.6075 -0.921,2.7814 0.3881,1.5298 0.8896,21.8976 1.1143,45.2618 0.2859,29.7309 0.8473,45.516 1.8706,52.5948 1.6499,11.4143 2.9647,44.8828 2.0001,50.915 l -0.6337,3.9632 -216.085,0.01 c -118.8468,0 -220.6365,-0.3886 -226.1994,-0.8698 z m 141.4234,-266.374 c 50.6163,-11.4313 89.8983,-51.6087 99.9191,-102.1965 0.8529,-4.3058 1.4024,-13.6192 1.4024,-23.7687 0,-10.1495 -0.5495,-19.4629 -1.4024,-23.7688 -10.2169,-51.5781 -51.1975,-92.5587 -102.7756,-102.7755 -4.3059,-0.853 -13.6193,-1.4025 -23.7688,-1.4025 -10.1495,0 -19.4629,0.5495 -23.7687,1.4025 -51.5781,10.2168 -92.5587,51.1974 -102.7756,102.7755 -0.8529,4.3059 -1.4025,13.6193 -1.4025,23.7688 0,10.1495 0.5496,19.4629 1.4025,23.7687 5.088,25.6861 18.6103,50.4364 37.4771,68.5959 18.2698,17.5849 42.9039,30.3246 65.8042,34.031 4.1721,0.6752 8.2685,1.3922 9.1029,1.5931 3.8074,0.917 34.5102,-0.6063 40.7854,-2.0235 z m -2637.8279,-32.366 c 50.6163,-11.4313 89.8983,-51.6086 99.919,-102.1964 0.853,-4.3059 1.4025,-13.6193 1.4025,-23.7688 0,-10.1495 -0.5495,-19.4629 -1.4025,-23.7688 -10.2169,-51.5781 -51.1974,-92.5586 -102.7755,-102.7755 -4.3059,-0.853 -13.6193,-1.4025 -23.7688,-1.4025 -10.1495,0 -19.4629,0.5495 -23.7688,1.4025 -51.5781,10.2169 -92.5586,51.1974 -102.7755,102.7755 -0.853,4.3059 -1.4025,13.6193 -1.4025,23.7688 0,10.1495 0.5495,19.4629 1.4025,23.7688 5.088,25.686 18.6102,50.4363 37.477,68.5958 18.2699,17.5849 42.904,30.3246 65.8043,34.031 4.1721,0.6753 8.2684,1.3922 9.1029,1.5931 3.8074,0.917 34.5102,-0.6063 40.7854,-2.0235 z"
         id="path14"
         inkscape:export-filename="both.svg"
         inkscape:export-xdpi="96"
         inkscape:export-ydpi="96" /></g></g></svg>
