<?xml version="1.0" encoding="UTF-8" standalone="no"?>
<!-- Created with Inkscape (http://www.inkscape.org/) -->

<svg
   version="1.1"
   id="svg1"
   width="3322.8926"
   height="1146.7344"
   viewBox="0 0 3322.8926 1146.7344"
   sodipodi:docname="IMG_5613.svg"
   xml:space="preserve"
   inkscape:version="1.3 (0e150ed, 2023-07-21)"
   inkscape:dataloss="true"
   xmlns:inkscape="http://www.inkscape.org/namespaces/inkscape"
   xmlns:sodipodi="http://sodipodi.sourceforge.net/DTD/sodipodi-0.dtd"
   xmlns="http://www.w3.org/2000/svg"
   xmlns:svg="http://www.w3.org/2000/svg"><defs
     id="defs1" /><sodipodi:namedview
     id="namedview1"
     pagecolor="#ffffff"
     bordercolor="#000000"
     borderopacity="0.25"
     inkscape:showpageshadow="2"
     inkscape:pageopacity="0.0"
     inkscape:pagecheckerboard="0"
     inkscape:deskcolor="#d1d1d1"
     inkscape:zoom="0.22061012"
     inkscape:cx="3458.5902"
     inkscape:cy="237.97639"
     inkscape:window-width="2560"
     inkscape:window-height="1212"
     inkscape:window-x="1440"
     inkscape:window-y="543"
     inkscape:window-maximized="0"
     inkscape:current-layer="g14" /><g
     inkscape:groupmode="layer"
     inkscape:label="Image"
     id="g1"
     transform="translate(-1579.0361,1470.6857)"><g
       id="g14"
       transform="translate(-58.927487,-1931.0084)"><path
         style="fill:#131313"
         d="m 4517.6104,1606.182 c -5.5629,-0.4812 -14.8934,-1.3681 -20.7344,-1.9708 -11.7706,-1.2145 -40.6673,-2.7166 -73.835,-3.8381 -11.9602,-0.4044 -22.301,-1.0796 -22.9796,-1.5005 -1.5488,-0.9608 -29.8887,-2.618 -60.9696,-3.5652 -13.0729,-0.3985 -24.4515,-1.1648 -25.286,-1.703 -0.8855,-0.5711 -22.5714,-1.2803 -52.089,-1.7034 -60.5733,-0.8683 -95.764,-2.0865 -104.6837,-3.6237 -3.6159,-0.6232 -12.0361,-1.8567 -18.7116,-2.7412 -6.6755,-0.8844 -16.4611,-2.5053 -21.7459,-3.6019 -9.1873,-1.9064 -38.397,-11.0205 -49.0547,-15.3061 -2.7814,-1.1185 -13.9325,-5.2083 -24.7802,-9.0884 -32.9501,-11.7859 -37.9676,-13.7332 -48.7683,-18.9268 -5.7204,-2.7507 -14.9522,-6.4222 -20.5151,-8.1587 -5.5629,-1.7366 -12.3901,-4.0751 -15.1716,-5.1967 -2.7814,-1.1216 -15.298,-5.682 -27.8145,-10.1341 -12.5165,-4.4522 -25.8296,-9.2032 -29.5845,-10.5579 -16.2267,-5.8543 -21.8727,-7.8639 -46.779,-16.65 -40.8661,-14.4163 -75.072,-27.1728 -83.9493,-31.3075 -9.671,-4.5044 -10.9305,-4.9721 -71.812,-26.663 -51.7794,-18.4481 -65.7059,-23.6728 -75.8578,-28.4591 -5.0066,-2.3605 -15.7026,-6.4498 -23.7688,-9.0872 -8.0662,-2.6375 -16.9415,-5.7175 -19.723,-6.8445 -5.5485,-2.2481 -32.2807,-11.4092 -43.4918,-14.9045 -3.894,-1.214 -11.8591,-4.1875 -17.7001,-6.6076 -12.0348,-4.9864 -10.6342,-4.4755 -65.2377,-23.7982 -22.2517,-7.8743 -46.1469,-16.3751 -53.1005,-18.8907 -28.0185,-10.1364 -43.3941,-15.2711 -47.6302,-15.9063 -2.4523,-0.3677 -6.507,-1.0705 -9.0103,-1.5617 -2.5033,-0.4913 -10.4683,-1.6495 -17.7001,-2.5738 -12.1178,-1.549 -14.0435,-1.5545 -24.5621,-0.071 -6.2774,0.8851 -13.5598,1.6127 -16.183,1.617 -2.6233,0 -7.728,0.9233 -11.3439,2.0424 -3.6159,1.1191 -10.6707,2.9463 -15.6773,4.0605 -5.0066,1.1142 -10.2408,2.4472 -11.6315,2.9623 -28.7112,10.6343 -85.2752,29.5692 -95.0751,31.8266 -3.6159,0.8329 -11.8085,3.3918 -18.2059,5.6864 -24.28,8.7087 -43.3086,14.901 -52.2106,16.9905 -5.0734,1.1909 -15.0867,4.248 -22.2516,6.7936 -12.2579,4.3551 -16.7775,5.9721 -33.5087,11.9885 -35.1595,12.643 -61.1028,21.4764 -71.838,24.4601 -19.7689,5.4944 -20.8373,5.8433 -55.3502,18.0749 -58.6481,20.7854 -67.4832,23.8878 -97.098,34.0953 -34.4537,11.8755 -40.8705,13.9488 -43.2035,13.9591 -0.9541,0 -3.9126,0.7331 -6.5744,1.6196 -5.0323,1.676 -65.4587,22.9715 -77.4103,27.281 -15.1145,5.4499 -21.0043,7.5517 -32.6188,11.64 -6.6755,2.3498 -14.6939,5.5458 -17.8187,7.1024 -3.1248,1.5566 -8.5866,3.5073 -12.1373,4.335 -7.8623,1.8327 -32.1041,10.2737 -42.0256,14.6334 -3.9873,1.752 -7.9445,3.1855 -8.7938,3.1855 -0.8494,0 -8.6229,2.4726 -17.2746,5.4946 -14.5734,5.0904 -22.4554,7.0226 -45.0684,11.0481 -19.1079,3.4015 -24.6759,3.9821 -46.0204,4.7988 -57.4434,2.1981 -65.9474,2.6272 -67.1821,3.3903 -0.7272,0.4494 -8.8937,1.1971 -18.1476,1.6615 -39.5402,1.9842 -52.7801,2.8175 -54.7635,3.447 -2.4738,0.7852 -18.7315,2.0899 -43.4245,3.4849 -9.7031,0.5482 -18.3509,1.2778 -19.2173,1.6214 -0.8664,0.3436 -6.5819,1.0275 -12.7011,1.5199 -6.1191,0.4924 -17.7254,1.6091 -25.7916,2.4817 -8.0662,0.8726 -19.7916,2.0007 -26.0563,2.5069 -6.2648,0.5063 -11.8274,1.1905 -12.3613,1.5205 -0.534,0.33 -6.7869,1.0237 -13.8955,1.5414 -23.0402,1.6783 -37.1658,3.0138 -38.7162,3.6605 -3.8795,1.6181 -58.5941,2.6952 -137.5555,2.708 -81.7012,0.013 -129.5332,-1.0097 -132.4837,-2.8332 -0.722,-0.4463 -9.3271,-1.1751 -19.1224,-1.6197 -20.4594,-0.9286 -35.345,-2.2311 -51.187,-4.4791 -6.1192,-0.8683 -16.1324,-2.2292 -22.2516,-3.0241 -13.4627,-1.749 -20.4357,-2.885 -49.5081,-8.0653 -11.2365,-2.0022 -28.862,-3.6241 -48.3019,-4.4446 -8.1797,-0.3453 -15.2887,-1.083 -15.7979,-1.6393 -0.5092,-0.5563 -1.7818,-5.3353 -2.828,-10.6201 -1.5905,-8.034 -1.8877,-14.0009 -1.8134,-36.4117 0.078,-23.464 0.3597,-28.0378 2.263,-36.7143 2.4945,-11.3711 2.2767,-25.4275 -0.6142,-39.6492 -3.5108,-17.2708 -1.8134,-43.2858 3.9095,-59.9196 1.8775,-5.4572 1.939,-10.5453 1.9519,-161.4906 0.013,-152.8097 0.053,-156.0436 2.0681,-165.4645 1.231,-5.7565 2.2816,-15.4881 2.6206,-24.2744 0.3842,-9.9609 1.1821,-16.775 2.487,-21.2402 3.5964,-12.3062 4.9354,-25.6986 4.9553,-49.56044 0.016,-19.63813 0.2872,-23.61244 1.9751,-28.99612 2.5031,-7.98373 5.0942,-25.3976 5.1108,-34.3485 0.01,-4.53656 0.8632,-9.61234 2.4614,-14.61578 3.1096,-9.7354 5.6172,-26.51999 5.6172,-37.59892 0,-4.97029 0.6261,-10.36762 1.4851,-12.80216 0.8167,-2.31498 2.1784,-7.86464 3.026,-12.33258 5.1489,-27.14261 19.8812,-61.02974 35.7918,-82.3278 3.3246,-4.45033 7.7659,-11.04995 9.8694,-14.66584 3.9153,-6.7302 21.3356,-26.284 36.7639,-41.2666 9.4822,-9.20834 27.9074,-22.91308 38.9877,-28.99938 3.8941,-2.13895 8.9007,-5.11826 11.1258,-6.6207 10.5943,-7.15327 39.1113,-21.30731 50.5719,-25.10065 23.2732,-7.70322 53.2807,-13.65187 77.7952,-15.42202 7.741,-0.55897 14.5109,-1.28593 15.0441,-1.61545 1.5201,-0.9395 39.2443,-2.73168 53.8191,-2.55681 7.2317,0.0868 52.7464,0.51068 101.1437,0.94204 51.0142,0.45468 88.6092,1.1794 89.4566,1.72447 0.8038,0.51711 13.5479,1.32115 28.3202,1.78675 66.8738,2.10781 74.9711,2.66094 86.5335,5.91113 8.1261,2.28425 28.67,13.15576 42.4803,22.47988 22.9193,15.47412 62.1729,35.86552 81.3359,42.25222 31.581,10.52542 78.9103,10.7482 111.262,0.52371 5.8855,-1.86008 13.6101,-3.92154 17.1657,-4.58101 3.5556,-0.65947 12.8861,-3.41696 20.7345,-6.12776 7.8483,-2.7108 18.1384,-5.83284 22.8669,-6.93786 4.7285,-1.10503 19.9759,-5.8592 33.8832,-10.56483 13.9072,-4.70563 29.1546,-9.46354 33.8831,-10.57314 4.7285,-1.10959 18.3829,-5.46696 30.3431,-9.68305 11.9603,-4.21609 26.3825,-8.82717 32.0495,-10.24685 5.667,-1.41969 20.2317,-5.95716 32.366,-10.08329 12.1343,-4.12613 26.7024,-8.66905 32.3736,-10.09538 5.6711,-1.42634 28.656,-9.01258 51.0775,-16.85831 22.4216,-7.84574 45.0903,-15.32517 50.3751,-16.62097 8.8085,-2.15979 36.8325,-11.3779 52.4719,-17.25988 3.5483,-1.33453 11.273,-3.61069 17.1659,-5.05814 5.8929,-1.44745 22.561,-6.64911 37.0402,-11.55925 14.4793,-4.91015 30.8774,-10.04867 36.4403,-11.41894 5.5629,-1.37026 24.4515,-7.59999 41.9747,-13.84383 17.5231,-6.24385 36.4117,-12.40173 41.9746,-13.68419 5.5629,-1.28246 17.8519,-5.02405 27.3088,-8.31463 9.4569,-3.29059 20.0097,-6.52797 23.4507,-7.19418 3.4409,-0.66621 9.5162,-2.3201 13.5007,-3.67531 3.9844,-1.3552 10.0445,-2.95048 13.4668,-3.54506 3.4222,-0.59459 9.4083,-1.95538 13.3023,-3.02398 35.6978,-9.79622 38.7835,-10.09417 104.6838,-10.10791 32.6602,-0.007 60.5759,0.44071 66.7548,1.07017 10.1235,1.03129 29.7424,4.97859 45.009,9.05574 3.894,1.03996 9.8109,2.4258 13.1487,3.07965 3.3377,0.65385 10.3925,2.77425 15.6772,4.71199 18.8187,6.90016 29.9713,10.5318 39.5568,12.88099 12.1088,2.96756 21.9121,6.4765 31.2939,11.20109 7.4869,3.77034 29.4106,11.56506 32.6024,11.59142 0.992,0.008 3.9505,1.10132 6.5743,2.42917 5.351,2.70792 18.1085,7.44967 59.3883,22.07361 15.5762,5.51806 39.699,14.06994 53.6062,19.00417 13.9073,4.93423 39.3955,13.94787 56.6405,20.03032 46.746,16.48768 55.6624,19.83172 66.7548,25.03623 9.8872,4.63899 37.8424,14.57348 41.0737,14.59642 0.8951,0.006 5.219,1.68062 9.6086,3.72059 8.0881,3.75877 22.4036,8.9724 96.9876,35.32236 22.8079,8.05786 51.4821,18.25085 63.7205,22.65108 85.7682,30.83738 106.4788,37.32509 130.9811,41.03051 12.9274,1.95498 41.783,1.899 55.4992,-0.10767 24.1897,-3.53891 63.06,-19.86717 86.6077,-36.38132 3.3377,-2.34078 9.4822,-5.96479 13.6544,-8.05336 4.1722,-2.08857 10.5442,-5.50711 14.1601,-7.59676 7.6723,-4.43384 27.2057,-11.57426 35.8389,-13.10089 8.8056,-1.5571 46.6526,-1.26582 59.2362,0.4559 8.0846,1.10615 23.5392,1.46557 64.732,1.50545 33.2305,0.0322 56.6489,0.46813 60.6862,1.12975 3.6159,0.59255 32.9729,1.48808 65.2377,1.99007 76.8074,1.19501 93.7637,2.72588 143.1183,12.92122 25.7925,5.32803 62.3212,22.44704 86.4779,40.52747 17.9018,13.39886 25.3796,19.85445 39.9518,34.49074 12.3972,12.45177 18.1192,19.04128 22.2516,25.62548 3.0596,4.87487 8.4085,13.22125 11.8865,18.54753 8.0432,12.31736 20.109,36.10503 25.4863,50.2457 2.4528,6.45017 4.9639,15.5873 6.1094,22.2306 1.0697,6.2036 3.1166,14.69287 4.5486,18.86504 5.9798,17.42209 5.5754,-3.93225 5.5754,294.39094 0,251.1229 -0.1361,274.0367 -1.6268,274.0367 -1.2715,0 -1.4727,0.6075 -0.921,2.7814 0.3881,1.5298 0.8896,21.8976 1.1143,45.2618 0.2859,29.7309 0.8473,45.516 1.8706,52.5948 1.6499,11.4143 2.9647,44.8828 2.0001,50.915 l -0.6337,3.9632 -216.085,0.01 c -118.8468,0 -220.6365,-0.3886 -226.1994,-0.8698 z m 141.4234,-266.374 c 50.6163,-11.4313 89.8983,-51.6087 99.9191,-102.1965 0.8529,-4.3058 1.4024,-13.6192 1.4024,-23.7687 0,-10.1495 -0.5495,-19.4629 -1.4024,-23.7688 -10.2169,-51.5781 -51.1975,-92.5587 -102.7756,-102.7755 -4.3059,-0.853 -13.6193,-1.4025 -23.7688,-1.4025 -10.1495,0 -19.4629,0.5495 -23.7687,1.4025 -51.5781,10.2168 -92.5587,51.1974 -102.7756,102.7755 -0.8529,4.3059 -1.4025,13.6193 -1.4025,23.7688 0,10.1495 0.5496,19.4629 1.4025,23.7687 5.088,25.6861 18.6103,50.4364 37.4771,68.5959 18.2698,17.5849 42.9039,30.3246 65.8042,34.031 4.1721,0.6752 8.2685,1.3922 9.1029,1.5931 3.8074,0.917 34.5102,-0.6063 40.7854,-2.0235 z m -2637.8279,-32.366 c 50.6163,-11.4313 89.8983,-51.6086 99.919,-102.1964 0.853,-4.3059 1.4025,-13.6193 1.4025,-23.7688 0,-10.1495 -0.5495,-19.4629 -1.4025,-23.7688 -10.2169,-51.5781 -51.1974,-92.5586 -102.7755,-102.7755 -4.3059,-0.853 -13.6193,-1.4025 -23.7688,-1.4025 -10.1495,0 -19.4629,0.5495 -23.7688,1.4025 -51.5781,10.2169 -92.5586,51.1974 -102.7755,102.7755 -0.853,4.3059 -1.4025,13.6193 -1.4025,23.7688 0,10.1495 0.5495,19.4629 1.4025,23.7688 5.088,25.686 18.6102,50.4363 37.477,68.5958 18.2699,17.5849 42.904,30.3246 65.8043,34.031 4.1721,0.6753 8.2684,1.3922 9.1029,1.5931 3.8074,0.917 34.5102,-0.6063 40.7854,-2.0235 z"
         id="path14"
         inkscape:export-filename="inner.svg"
         inkscape:export-xdpi="96"
         inkscape:export-ydpi="96" /></g></g></svg>
